<?xml version="1.0" encoding="UTF-8"?>
<svg id="Calque_2" data-name="Calque 2" xmlns="http://www.w3.org/2000/svg" viewBox="0 0 112.11 56.07" fill="#143324ef">
  <defs>
    <style>
      .cls-1 {
        isolation: isolate;
      }
    </style>
  </defs>
  <g id="svg8">
    <g>
      <path d="m28.33,17.85c3.96-9.17,13.08-15.6,23.69-15.6s20.12,6.71,23.93,16.2h2.41C74.43,7.69,64.11,0,52.02,0s-22.03,7.41-26.11,17.85h2.43Z"/>
      <path d="m71.88,44.45c-4.73,5.72-11.88,9.37-19.87,9.37-13.21,0-24.13-9.99-25.61-22.82h-2.27c1.49,14.07,13.42,25.07,27.87,25.07,9.33,0,17.6-4.59,22.7-11.62h-2.83Z"/>
    </g>
    <path id="path9331" d="m72.94,17.62h7.58l-3.87,5.61-3.72-5.61Z"/>
    <g id="text9335" class="cls-1">
      <g class="cls-1">
        <path d="m59.94,40.01c-.24,1.03-.69,1.82-1.35,2.37-.68.55-1.49.82-2.43.82-.84-.02-1.55-.23-2.11-.64-.58-.39-.99-.84-1.25-1.36-.08-.17-.15-.33-.21-.48-.06-.16-.11-.36-.15-.59-.07-.45-.11-1.3-.11-2.57s.04-2.15.11-2.59c.08-.44.2-.79.36-1.06.26-.51.68-.97,1.25-1.37.56-.41,1.27-.61,2.12-.62,1.04,0,1.88.33,2.54.95.65.63,1.07,1.41,1.24,2.33h-1.73c-.13-.45-.37-.83-.72-1.14-.36-.3-.81-.46-1.33-.47-.38.01-.71.09-.99.24-.28.15-.51.34-.68.57-.21.24-.35.55-.42.92-.08.4-.12,1.14-.12,2.23s.04,1.83.12,2.22c.07.39.21.7.42.94.17.23.4.42.68.56.28.17.61.25.99.25.92,0,1.6-.51,2.05-1.52h1.73Z"/>
        <path d="m61.36,32.01h1.63v11.09h-1.63v-11.09Z"/>
        <path d="m65.38,32.01h4.2c.9,0,1.63.24,2.19.73.68.55,1.04,1.34,1.07,2.37-.02,1.51-.71,2.53-2.08,3.07l2.49,4.92h-1.93l-2.22-4.74h-2.08v4.74h-1.63v-11.09Zm1.63,4.86h2.47c.61-.01,1.07-.19,1.38-.55.3-.33.45-.74.45-1.22,0-.58-.19-1-.54-1.26-.28-.23-.67-.34-1.2-.34h-2.56v3.37Z"/>
        <path d="m82.13,40.01c-.24,1.03-.69,1.82-1.35,2.37-.68.55-1.49.82-2.43.82-.84-.02-1.55-.23-2.11-.64-.58-.39-.99-.84-1.25-1.36-.08-.17-.15-.33-.21-.48-.06-.16-.11-.36-.15-.59-.07-.45-.11-1.3-.11-2.57s.04-2.15.11-2.59c.08-.44.2-.79.36-1.06.26-.51.68-.97,1.25-1.37.56-.41,1.27-.61,2.12-.62,1.04,0,1.88.33,2.54.95.65.63,1.07,1.41,1.24,2.33h-1.73c-.13-.45-.38-.83-.72-1.14-.36-.3-.81-.46-1.33-.47-.38.01-.71.09-.99.24-.28.15-.51.34-.68.57-.21.24-.35.55-.42.92-.08.4-.12,1.14-.12,2.23s.04,1.83.12,2.22c.07.39.21.7.42.94.17.23.4.42.68.56.28.17.61.25.99.25.92,0,1.6-.51,2.05-1.52h1.72Z"/>
        <path d="m83.35,32.01h1.63v7.16c0,.76.22,1.33.63,1.73.4.42.92.62,1.56.62s1.16-.21,1.57-.62c.4-.4.61-.97.62-1.73v-7.16h1.63v7.34c-.02,1.17-.39,2.09-1.1,2.78-.72.71-1.62,1.06-2.72,1.07-1.08,0-1.98-.37-2.7-1.07-.74-.68-1.11-1.61-1.12-2.77v-7.34Z"/>
        <path d="m93.37,32.01h1.63v11.09h-1.63v-11.09Z"/>
        <path d="m99.21,33.5h-2.95v-1.49h7.52v1.49h-2.95v9.6h-1.63v-9.6Z"/>
        <path d="m105.31,40.42c.86.73,1.87,1.1,3.05,1.11,1.4-.02,2.1-.54,2.12-1.55.01-.83-.46-1.33-1.4-1.49-.43-.06-.91-.13-1.42-.21-.92-.16-1.63-.51-2.11-1.06-.5-.56-.74-1.25-.74-2.06,0-.97.31-1.75.94-2.35.6-.59,1.46-.89,2.57-.9,1.33.03,2.5.41,3.48,1.15l-.91,1.38c-.81-.55-1.69-.83-2.66-.85-.5,0-.92.13-1.25.39-.35.27-.53.67-.54,1.2,0,.32.12.61.36.87.24.26.63.45,1.16.55.29.05.7.11,1.21.17,1.01.14,1.75.52,2.23,1.12.48.59.71,1.28.71,2.07-.05,2.12-1.31,3.2-3.77,3.23-1.59,0-2.96-.5-4.1-1.51l1.07-1.26Z"/>
      </g>
    </g>
    <path d="m79.46,31.31h0c-.27,0-.51-.16-.63-.4l-2.14-4.37-2.09,4.32c-.12.24-.36.4-.63.4-.26,0-.52-.15-.64-.38l-2.29-4.43-.93,1.72c-.12.23-.36.37-.62.37h-5.06v-1.42h4.64l1.36-2.53c.12-.23.36-.36.63-.37.26,0,.5.15.62.38l2.26,4.37,2.11-4.35c.12-.24.37-.4.64-.4h0c.27,0,.52.15.64.4l2.15,4.41,2.28-4.42c.12-.23.36-.38.62-.38h0c.26,0,.5.14.62.37l2.44,4.48.94-1.74c.12-.23.36-.37.62-.37h4.57v1.42h-4.15l-1.36,2.52c-.12.23-.36.37-.62.37h0c-.26,0-.5-.14-.62-.37l-2.43-4.46-2.31,4.49c-.12.24-.36.38-.63.38Z"/>
    <path d="m62.28,31.15c-1.84,0-3.34-1.5-3.34-3.34s1.5-3.34,3.34-3.34,3.34,1.5,3.34,3.34-1.5,3.34-3.34,3.34Zm0-5.26c-1.06,0-1.92.86-1.92,1.92s.86,1.92,1.92,1.92,1.92-.86,1.92-1.92-.86-1.92-1.92-1.92Z"/>
    <path d="m93.95,31.15c-1.84,0-3.34-1.5-3.34-3.34s1.5-3.34,3.34-3.34,3.34,1.5,3.34,3.34-1.5,3.34-3.34,3.34Zm0-5.26c-1.06,0-1.92.86-1.92,1.92s.86,1.92,1.92,1.92,1.92-.86,1.92-1.92-.86-1.92-1.92-1.92Z"/>
    <g id="text9335-9" class="cls-1">
      <g class="cls-1">
        <path d="m7.61,26.86c-.24,1.03-.69,1.82-1.35,2.37-.68.55-1.49.82-2.43.82-.84-.02-1.55-.23-2.11-.64-.58-.39-.99-.84-1.25-1.35-.08-.17-.15-.33-.21-.48-.06-.16-.11-.35-.15-.59-.07-.45-.11-1.3-.11-2.57s.04-2.15.11-2.59c.08-.44.2-.79.36-1.06.26-.51.68-.97,1.25-1.37.56-.41,1.27-.61,2.12-.62,1.04.01,1.88.33,2.54.95.65.63,1.07,1.41,1.24,2.33h-1.73c-.13-.45-.37-.83-.72-1.14-.36-.3-.81-.46-1.33-.47-.38.01-.71.09-.99.24-.28.15-.51.34-.68.57-.21.24-.35.55-.42.92-.08.4-.12,1.14-.12,2.23s.04,1.83.12,2.22c.07.39.21.7.42.94.17.23.4.41.68.56.28.17.61.25.99.25.92,0,1.6-.51,2.05-1.52h1.73Z"/>
        <path d="m9.03,18.87h1.63v11.1h-1.63v-11.1Z"/>
        <path d="m13.05,18.87h4.2c.9,0,1.63.24,2.19.73.68.55,1.04,1.34,1.07,2.37-.02,1.51-.71,2.53-2.08,3.07l2.49,4.92h-1.93l-2.22-4.74h-2.08v4.74h-1.63v-11.1Zm1.63,4.86h2.47c.61-.01,1.07-.19,1.37-.55.3-.33.45-.74.45-1.22,0-.58-.19-1-.54-1.26-.28-.23-.67-.34-1.2-.34h-2.56v3.37Z"/>
        <path d="m29.8,26.86c-.24,1.03-.69,1.82-1.35,2.37-.68.55-1.49.82-2.43.82-.84-.02-1.55-.23-2.11-.64-.58-.39-.99-.84-1.25-1.35-.08-.17-.15-.33-.21-.48-.06-.16-.11-.35-.15-.59-.07-.45-.11-1.3-.11-2.57s.04-2.15.11-2.59c.08-.44.2-.79.36-1.06.26-.51.68-.97,1.25-1.37.56-.41,1.27-.61,2.12-.62,1.04.01,1.88.33,2.54.95.65.63,1.07,1.41,1.24,2.33h-1.73c-.13-.45-.37-.83-.72-1.14-.36-.3-.81-.46-1.33-.47-.38.01-.71.09-.99.24-.28.15-.51.34-.68.57-.21.24-.35.55-.42.92-.08.4-.12,1.14-.12,2.23s.04,1.83.12,2.22c.07.39.21.7.42.94.17.23.4.41.68.56.28.17.61.25.99.25.92,0,1.6-.51,2.05-1.52h1.73Z"/>
        <path d="m31.22,18.87h1.63v9.51h5.24v1.58h-6.87v-11.1Z"/>
        <path d="m39.89,18.87h6.87v1.58h-5.24v3.17h4.47v1.49h-4.47v3.27h5.24v1.58h-6.87v-11.1Z"/>
      </g>
    </g>
  </g>
</svg>